<svg id="Layer_1" data-name="Layer 1" xmlns="http://www.w3.org/2000/svg" viewBox="0 0 400 222.22"><defs><style>.cls-1{fill:#0026bb;}.cls-2{fill:#faf5b5;}.cls-3{fill:#b5defa;}.cls-4{fill:#bab5fa;}</style></defs><rect class="cls-1" width="200" height="222.22"/><polygon class="cls-2" points="400 222.22 400 111.11 200 222.22 400 222.22"/><polygon class="cls-3" points="200 0 400 111.11 400 0 200 0"/><polygon class="cls-1" points="200 222.22 400 111.11 200 0 200 222.22"/><polygon class="cls-2" points="0 0 39.95 222.22 0 222.22 0 0"/><polygon class="cls-3" points="200 0 160.05 222.22 200 222.22 200 0"/><polygon class="cls-2" points="120.99 186.65 141.99 69.88 120.99 69.88 100 69.88 120.99 186.65"/><polygon class="cls-2" points="79.01 186.65 100 69.88 79.01 69.88 58.02 69.88 79.01 186.65"/><polygon class="cls-4" points="245.24 65.08 328.1 111.11 245.24 157.14 245.24 65.08"/><polygon class="cls-4" points="87.44 0 120.99 186.65 154.55 0 87.44 0"/><polygon class="cls-4" points="45.45 0 79.01 186.65 112.56 0 45.45 0"/></svg>