<svg id="Layer_1" data-name="Layer 1" xmlns="http://www.w3.org/2000/svg" viewBox="0 0 4000 189.45"><defs><style>.cls-1{fill:none;stroke:#0057bf;stroke-miterlimit:10;stroke-width:10px;}</style></defs><path class="cls-1" d="M4000,69.45c-95.24,0-95.24,54-190.48,54s-95.23-54-190.47-54-95.24,54-190.47,54-95.24-54-190.47-54-95.24,54-190.47,54-95.24-54-190.48-54-95.24,54-190.47,54-95.24-54-190.48-54-95.23,54-190.47,54-95.24-54-190.48-54-95.24,54-190.47,54-95.24-54-190.48-54-95.24,54-190.48,54-95.24-54-190.48-54-95.23,54-190.47,54-95.24-54-190.48-54-95.24,54-190.47,54-95.24-54-190.48-54-95.24,54-190.48,54-95.24-54-190.48-54-95.25,54-190.49,54"/><path class="cls-1" d="M4000,125.66c-95.24,0-95.24,54-190.48,54s-95.23-54-190.47-54-95.24,54-190.47,54-95.24-54-190.47-54-95.24,54-190.47,54-95.24-54-190.48-54-95.24,54-190.47,54-95.24-54-190.48-54-95.23,54-190.47,54-95.24-54-190.48-54-95.24,54-190.47,54-95.24-54-190.48-54-95.24,54-190.48,54-95.24-54-190.48-54-95.23,54-190.47,54-95.24-54-190.48-54-95.24,54-190.47,54-95.24-54-190.48-54-95.24,54-190.48,54-95.24-54-190.48-54-95.25,54-190.49,54"/><path class="cls-1" d="M4000,13.24c-95.24,0-95.24,54-190.48,54s-95.23-54-190.47-54-95.24,54-190.47,54-95.24-54-190.47-54-95.24,54-190.47,54-95.24-54-190.48-54-95.24,54-190.47,54-95.24-54-190.48-54-95.23,54-190.47,54-95.24-54-190.48-54-95.24,54-190.47,54-95.24-54-190.48-54-95.24,54-190.48,54-95.24-54-190.48-54-95.23,54-190.47,54-95.24-54-190.48-54-95.24,54-190.47,54-95.24-54-190.48-54-95.24,54-190.48,54-95.24-54-190.48-54S95.24,67.24,0,67.24"/></svg>